<svg width="914" height="400" fill="none" xmlns="http://www.w3.org/2000/svg">
  <path fill="#fff" d="M0 0h914v400H0z"/>
  <path d="M433.02 193.342c-.693 0-1.277-.114-1.75-.342a3.09 3.09 0 01-1.163-1.039V193h-3.636v-18.566l3.636-1.655v6.946c.31-.411.72-.739 1.231-.985.51-.255 1.116-.383 1.818-.383.857 0 1.645.174 2.365.52a5.25 5.25 0 011.887 1.477c.529.638.939 1.421 1.231 2.351.3.921.451 1.964.451 3.131 0 1.212-.141 2.288-.424 3.226-.283.93-.688 1.714-1.217 2.352a5.2 5.2 0 01-1.914 1.436c-.747.328-1.586.492-2.515.492zm-.424-3.5c.465 0 .875-.091 1.23-.274a2.5 2.5 0 00.889-.806c.246-.356.428-.78.547-1.272a6.621 6.621 0 00.191-1.654c0-1.285-.251-2.27-.752-2.953-.492-.684-1.194-1.026-2.105-1.026-.31 0-.597.037-.862.11a2.782 2.782 0 00-.711.273c-.209.11-.391.237-.546.383a2.175 2.175 0 00-.37.41v5.66c.265.365.597.647.998.848.402.201.898.301 1.491.301zm8.635 3.158v-14.314h3.637V193h-3.637zm1.818-15.982c-.291 0-.569-.055-.834-.164a2.35 2.35 0 01-.67-.465 2.35 2.35 0 01-.465-.67 2.172 2.172 0 010-1.655c.119-.255.274-.478.465-.669.192-.192.415-.342.67-.452a2.172 2.172 0 011.655 0 2.078 2.078 0 011.134 1.121c.11.256.164.529.164.821 0 .291-.054.569-.164.834a2.11 2.11 0 01-.451.67 2.28 2.28 0 01-.683.465 2.072 2.072 0 01-.821.164zm11.206 16.324c-.693 0-1.276-.114-1.75-.342a3.08 3.08 0 01-1.162-1.039V193h-3.637v-18.566l3.637-1.655v6.946c.309-.411.72-.739 1.23-.985.51-.255 1.117-.383 1.818-.383.857 0 1.646.174 2.366.52a5.256 5.256 0 011.886 1.477c.529.638.939 1.421 1.231 2.351.301.921.451 1.964.451 3.131 0 1.212-.141 2.288-.424 3.226-.282.93-.688 1.714-1.217 2.352a5.2 5.2 0 01-1.914 1.436c-.747.328-1.586.492-2.515.492zm-.424-3.5c.465 0 .875-.091 1.23-.274a2.5 2.5 0 00.889-.806c.246-.356.428-.78.547-1.272a6.621 6.621 0 00.191-1.654c0-1.285-.25-2.27-.752-2.953-.492-.684-1.194-1.026-2.105-1.026-.31 0-.597.037-.861.11a2.754 2.754 0 00-.711.273c-.21.11-.392.237-.547.383a2.134 2.134 0 00-.369.41v5.66c.264.365.597.647.998.848.401.201.897.301 1.49.301zm14.487 3.5c-1.012 0-1.924-.169-2.735-.506a5.843 5.843 0 01-2.078-1.477c-.565-.647-1.003-1.431-1.312-2.351-.31-.93-.465-1.978-.465-3.145 0-1.166.155-2.215.465-3.144.309-.93.747-1.718 1.312-2.365a5.617 5.617 0 012.078-1.477c.811-.346 1.723-.52 2.735-.52 1.011 0 1.923.174 2.734.52a5.495 5.495 0 012.064 1.477c.575.647 1.012 1.435 1.313 2.365.31.929.465 1.978.465 3.144 0 1.167-.155 2.215-.465 3.145-.301.92-.738 1.704-1.313 2.351a5.712 5.712 0 01-2.064 1.477c-.811.337-1.723.506-2.734.506zm0-3.5c.455 0 .865-.091 1.23-.274.365-.182.67-.442.916-.779.255-.346.451-.766.588-1.258a6.224 6.224 0 00.205-1.668c0-.629-.068-1.189-.205-1.681a3.824 3.824 0 00-.588-1.258 2.452 2.452 0 00-.916-.793 2.719 2.719 0 00-1.23-.274 2.72 2.72 0 00-1.231.274 2.581 2.581 0 00-.93.793 4 4 0 00-.574 1.258 6.276 6.276 0 00-.205 1.681c0 .62.068 1.176.205 1.668.137.492.328.912.574 1.258.256.337.566.597.93.779.365.183.775.274 1.231.274zm15.375 3.5c-.702 0-1.308-.128-1.818-.383a3.433 3.433 0 01-1.231-.998v4.99l-3.637 1.654v-19.919h3.637v1.039c.31-.411.72-.739 1.231-.985.519-.255 1.134-.383 1.845-.383.884 0 1.691.164 2.42.493a4.966 4.966 0 011.86 1.449c.519.629.92 1.413 1.203 2.351.282.93.424 2.001.424 3.213 0 1.167-.151 2.215-.452 3.145-.291.92-.701 1.704-1.23 2.351a5.485 5.485 0 01-1.887 1.477 5.508 5.508 0 01-2.365.506zm-.561-3.5c.912 0 1.614-.342 2.106-1.026.501-.692.752-1.677.752-2.953 0-.61-.064-1.162-.192-1.654a3.605 3.605 0 00-.546-1.258 2.51 2.51 0 00-.889-.806 2.552 2.552 0 00-1.231-.288c-.592 0-1.089.101-1.49.301a2.715 2.715 0 00-.998.848v5.66c.091.137.214.278.369.424.155.137.338.264.547.383.21.109.447.2.711.273.264.064.552.096.861.096z" fill="#6C9"/>
  <path d="M394.303 227h-1.75l-2.967-10.281a7.679 7.679 0 01-.219-1.244h-.054a5.61 5.61 0 01-.096.505c-.036.201-.1.438-.191.711L385.758 227h-1.709l-4.238-14h1.873l3.076 10.855c.091.319.155.725.191 1.217h.11c.018-.164.045-.351.082-.56.045-.21.105-.433.178-.67l3.39-10.842h1.449l3.036 10.869c.082.31.15.716.205 1.217h.109a1.91 1.91 0 01.055-.533c.045-.21.105-.438.177-.684L396.819 213h1.763l-4.279 14zm12.045.328c-1.039 0-1.973-.173-2.802-.519a6.044 6.044 0 01-2.106-1.463 6.55 6.55 0 01-1.34-2.284c-.309-.884-.464-1.863-.464-2.939 0-1.167.164-2.21.492-3.131.328-.92.793-1.7 1.394-2.338a6.016 6.016 0 012.201-1.476c.857-.338 1.814-.506 2.872-.506 1.011 0 1.923.168 2.734.506a5.507 5.507 0 012.064 1.435c.565.629.998 1.395 1.299 2.297.301.902.451 1.928.451 3.076 0 1.094-.159 2.092-.478 2.994a6.671 6.671 0 01-1.34 2.311 5.964 5.964 0 01-2.133 1.504c-.838.355-1.786.533-2.844.533zm.137-13.139c-.765 0-1.458.133-2.078.397a4.39 4.39 0 00-1.6 1.162c-.437.501-.774 1.121-1.011 1.859-.237.73-.356 1.559-.356 2.489 0 .875.119 1.663.356 2.365a5.4 5.4 0 00.998 1.805c.437.501.966.888 1.586 1.162.619.264 1.312.396 2.078.396.784 0 1.476-.127 2.078-.383a4.196 4.196 0 001.531-1.134c.419-.502.734-1.112.944-1.832.218-.72.328-1.541.328-2.461 0-1.887-.42-3.327-1.258-4.321-.839-1.002-2.037-1.504-3.596-1.504zm16.571.602c-.41-.301-.939-.451-1.586-.451a2.66 2.66 0 00-1.23.273 3.1 3.1 0 00-.944.711 4.558 4.558 0 00-.683 1.053 7.91 7.91 0 00-.452 1.23c-.109.429-.191.862-.246 1.299-.045.438-.068.852-.068 1.244V227h-1.736v-14h1.736v2.994h.055c.164-.51.369-.966.615-1.367.255-.41.547-.752.875-1.025a3.584 3.584 0 011.066-.643 3.497 3.497 0 011.231-.219c.282 0 .533.018.752.055.228.036.433.091.615.164v1.832zM433.283 227l-6.439-6.822h-.055V227h-1.75v-20.727h1.75v13.248h.055l6.111-6.521h2.283l-6.562 6.768 7.082 7.232h-2.475zm4.635-6.686c.01.857.124 1.627.342 2.311.219.684.533 1.262.944 1.736.41.474.907.839 1.49 1.094.592.246 1.258.369 1.996.369 1.577 0 3.067-.551 4.471-1.654v1.723c-1.34.957-2.963 1.435-4.868 1.435-.938 0-1.791-.164-2.556-.492a5.322 5.322 0 01-1.955-1.422c-.538-.629-.953-1.399-1.244-2.31-.292-.912-.438-1.951-.438-3.118 0-1.048.16-2.019.479-2.912.319-.893.761-1.663 1.326-2.31a5.989 5.989 0 012.01-1.532 5.781 5.781 0 012.543-.56c.902 0 1.699.159 2.392.478a4.57 4.57 0 011.736 1.34c.474.584.834 1.295 1.081 2.133.246.839.369 1.777.369 2.816v.875h-10.118zm8.313-1.531c-.027-1.458-.374-2.588-1.039-3.39-.665-.803-1.591-1.204-2.775-1.204-.593 0-1.144.105-1.655.315-.501.21-.943.515-1.326.916a4.886 4.886 0 00-.957 1.449 7.38 7.38 0 00-.52 1.914h8.272zm11.622-3.992c-.411-.301-.939-.451-1.586-.451-.465 0-.875.091-1.231.273-.355.173-.67.41-.943.711a4.594 4.594 0 00-.684 1.053 8.01 8.01 0 00-.451 1.23c-.109.429-.191.862-.246 1.299-.046.438-.068.852-.068 1.244V227h-1.737v-14h1.737v2.994h.054c.164-.51.369-.966.616-1.367.255-.41.546-.752.875-1.025a3.572 3.572 0 011.066-.643 3.495 3.495 0 011.23-.219c.283 0 .534.018.752.055.228.036.433.091.616.164v1.832z" fill="#333"/>
  <path d="M463.803 224.484c.264.21.551.397.861.561.31.164.629.305.957.424.328.118.656.209.984.273.338.055.657.082.957.082 2.078 0 3.118-.779 3.118-2.338 0-.355-.073-.66-.219-.916a2.317 2.317 0 00-.629-.711 5.098 5.098 0 00-.984-.601 27.995 27.995 0 00-1.299-.574 13.197 13.197 0 01-1.668-.807 5.157 5.157 0 01-1.149-.889 3.321 3.321 0 01-.67-1.066 3.802 3.802 0 01-.218-1.326c0-.62.132-1.172.396-1.655a3.92 3.92 0 011.094-1.23 4.96 4.96 0 011.572-.766 6.485 6.485 0 011.887-.273c1.212 0 2.269.228 3.172.683v1.846c-1.048-.674-2.179-1.012-3.391-1.012-.437 0-.838.055-1.203.165a2.792 2.792 0 00-.916.464 2.198 2.198 0 00-.602.725 2.028 2.028 0 00-.205.916c0 .346.055.652.164.916.11.255.278.488.506.697.237.21.538.41.903.602.373.191.824.396 1.353.615.675.273 1.258.547 1.75.82.492.265.898.556 1.217.875.319.31.556.661.711 1.053.155.383.232.83.232 1.34 0 .629-.132 1.189-.396 1.682a3.534 3.534 0 01-1.08 1.244 4.904 4.904 0 01-1.614.765 7.459 7.459 0 01-2.023.26c-1.413 0-2.602-.296-3.568-.889v-1.955zm20.918 1.887c-1.039.629-2.297.953-3.773.971-1.003.009-1.905-.164-2.707-.52a5.966 5.966 0 01-2.051-1.476 6.688 6.688 0 01-1.299-2.242 8.525 8.525 0 01-.451-2.817c0-1.048.159-2.032.478-2.953a6.988 6.988 0 011.395-2.42 6.557 6.557 0 012.242-1.641c.884-.401 1.896-.601 3.035-.601 1.158 0 2.215.223 3.172.67v1.859c-1.021-.674-2.124-1.012-3.308-1.012-.83 0-1.568.16-2.215.479a4.73 4.73 0 00-1.641 1.285 5.841 5.841 0 00-1.012 1.901 7.56 7.56 0 00-.341 2.296c0 .748.095 1.463.287 2.147.2.683.501 1.29.902 1.818.41.52.925.934 1.545 1.244.62.31 1.349.465 2.187.465a5.822 5.822 0 003.555-1.176v1.723zm9.762-11.58c-.41-.301-.938-.451-1.586-.451-.464 0-.875.091-1.23.273-.356.173-.67.41-.943.711a4.529 4.529 0 00-.684 1.053 7.906 7.906 0 00-.451 1.23c-.11.429-.192.862-.246 1.299-.046.438-.069.852-.069 1.244V227h-1.736v-14h1.736v2.994h.055c.164-.51.369-.966.615-1.367.256-.41.547-.752.875-1.025a3.576 3.576 0 011.067-.643 3.495 3.495 0 011.23-.219c.283 0 .533.018.752.055.228.036.433.091.615.164v1.832zm2.845-5.332c-.338 0-.629-.119-.875-.355a1.2 1.2 0 01-.369-.903c0-.355.123-.647.369-.875.246-.237.537-.355.875-.355.173 0 .337.032.492.095.155.055.287.137.396.246.119.11.21.242.274.397.073.146.109.31.109.492a1.276 1.276 0 01-.369.903 1.367 1.367 0 01-.41.259c-.146.064-.31.096-.492.096zM496.466 227v-14h1.75v14h-1.75zm7.452-2.256v8.695h-1.75V213h1.75v2.68h.055c.519-.976 1.212-1.718 2.078-2.229.875-.519 1.859-.779 2.953-.779.893 0 1.691.164 2.393.492a4.828 4.828 0 011.791 1.367c.492.593.865 1.313 1.121 2.16.264.848.396 1.801.396 2.858 0 1.157-.146 2.215-.437 3.172-.292.948-.711 1.763-1.258 2.447a5.766 5.766 0 01-1.996 1.6c-.775.373-1.65.56-2.625.56-1.969 0-3.441-.861-4.416-2.584h-.055zm0-3.568c0 .638.105 1.239.315 1.804a4.85 4.85 0 00.902 1.477c.383.419.843.752 1.381.998a4.347 4.347 0 001.804.369c.702 0 1.336-.146 1.901-.437a4.157 4.157 0 001.435-1.272c.401-.547.707-1.207.916-1.982.219-.775.328-1.641.328-2.598 0-.82-.1-1.558-.3-2.215-.201-.665-.488-1.23-.862-1.695a3.622 3.622 0 00-1.339-1.066c-.52-.247-1.103-.37-1.75-.37-.73 0-1.386.137-1.969.411a4.358 4.358 0 00-1.49 1.093 4.858 4.858 0 00-.944 1.641 5.909 5.909 0 00-.328 1.982v1.86zm19.784 5.66a4.34 4.34 0 01-1.969.451c-2.26 0-3.391-1.303-3.391-3.91v-8.846h-2.461V213h2.461v-3.527l1.75-.575V213h3.61v1.531h-3.61v8.573c0 .947.155 1.631.465 2.05.31.42.834.629 1.573.629.546 0 1.07-.164 1.572-.492v1.545zm1.545-2.352a5.6 5.6 0 00.862.561c.309.164.628.305.957.424.328.118.656.209.984.273.337.055.656.082.957.082 2.078 0 3.117-.779 3.117-2.338 0-.355-.073-.66-.219-.916a2.3 2.3 0 00-.628-.711 5.077 5.077 0 00-.985-.601 27.995 27.995 0 00-1.299-.574 13.197 13.197 0 01-1.668-.807 5.172 5.172 0 01-1.148-.889 3.321 3.321 0 01-.67-1.066 3.779 3.779 0 01-.219-1.326c0-.62.132-1.172.397-1.655a3.908 3.908 0 011.094-1.23 4.94 4.94 0 011.572-.766 6.473 6.473 0 011.886-.273c1.213 0 2.27.228 3.172.683v1.846c-1.048-.674-2.178-1.012-3.39-1.012-.438 0-.839.055-1.203.165a2.792 2.792 0 00-.916.464 2.186 2.186 0 00-.602.725 2.015 2.015 0 00-.205.916c0 .346.055.652.164.916.109.255.278.488.506.697.237.21.538.41.902.602.374.191.825.396 1.354.615a16.07 16.07 0 011.75.82c.492.265.898.556 1.217.875.319.31.556.661.71 1.053.155.383.233.83.233 1.34 0 .629-.132 1.189-.397 1.682a3.534 3.534 0 01-1.08 1.244 4.89 4.89 0 01-1.613.765c-.62.174-1.294.26-2.023.26-1.413 0-2.603-.296-3.569-.889v-1.955z" fill="#555"/>
</svg>
